<svg id="Capa_5" data-name="Capa 5" xmlns="http://www.w3.org/2000/svg" viewBox="0 0 768 755.2"><defs><style>.cls-1{fill:#1d1d1f;fill-rule:evenodd;}</style></defs><path class="cls-1" d="M384.32,6.4C171.8,6.4,0,179.47,0,393.57c0,171.15,110.08,316,262.79,367.3,19.09,3.85,26.08-8.33,26.08-18.58,0-9-.63-39.75-.63-71.8-106.91,23.08-129.17-46.16-129.17-46.16-17.18-44.87-42.64-56.4-42.64-56.4-35-23.72,2.55-23.72,2.55-23.72C157.8,546.78,178.16,584,178.16,584c34.36,59,89.72,42.31,112,32,3.17-25,13.36-42.3,24.18-51.92-85.27-9-175-42.3-175-191,0-42.31,15.26-76.92,39.44-103.84-3.81-9.62-17.18-49.37,3.83-102.57,0,0,32.45-10.26,105.61,39.74a366.45,366.45,0,0,1,192.16,0c73.18-50,105.63-39.74,105.63-39.74,21,53.2,7.63,93,3.81,102.57,24.82,26.92,39.46,61.53,39.46,103.84,0,148.72-89.72,181.4-175.62,191,14,12.18,26.09,35.25,26.09,71.79,0,51.92-.63,93.59-.63,106.41,0,10.26,7,22.44,26.08,18.59C657.92,709.58,768,564.72,768,393.57,768.63,179.47,596.2,6.4,384.32,6.4Z" transform="translate(0 -6.4)"/></svg>