<svg id="Capa_6" data-name="Capa 6" xmlns="http://www.w3.org/2000/svg" viewBox="0 0 730.68 746.91"><defs><style>.cls-1{fill:#1d1d1f;}</style></defs><circle class="cls-1" cx="97.42" cy="97.42" r="97.42"/><rect class="cls-1" x="16.24" y="259.8" width="162.37" height="487.12" rx="1.91"/><path class="cls-1" d="M749.34,449V725a32.58,32.58,0,0,1-32.48,32.48H619.44A32.57,32.57,0,0,1,587,725V497.66a81.19,81.19,0,0,0-162.38,0V725a32.57,32.57,0,0,1-32.47,32.48H294.69A32.57,32.57,0,0,1,262.22,725V302.81a32.56,32.56,0,0,1,32.47-32.47h97.43a32.56,32.56,0,0,1,32.47,32.47V323.6c32.48-42.06,86.22-69.5,146.14-69.5C660.36,254.1,749.34,319.05,749.34,449Z" transform="translate(-18.66 -10.54)"/></svg>