<svg id="Capa_7" data-name="Capa 7" xmlns="http://www.w3.org/2000/svg" viewBox="0 0 735.32 523.34"><defs><style>.cls-1{fill:#1d1d1f;}</style></defs><path class="cls-1" d="M400.93,424.53a25,25,0,0,1-33.86,0L53.49,134a6.71,6.71,0,0,1,4.56-11.63H710A6.71,6.71,0,0,1,714.51,134Zm-132.1-33.28L27.61,614.76a6.71,6.71,0,0,1-11.27-4.92V158.15a6.71,6.71,0,0,1,11.27-4.92L268.83,376.75A9.89,9.89,0,0,1,268.83,391.25Zm24.44,20.61a9.87,9.87,0,0,1,13.44,0l38.8,35.94a56.88,56.88,0,0,0,77,0l38.8-35.94a9.86,9.86,0,0,1,13.43,0L714.51,634A6.71,6.71,0,0,1,710,645.67H58.05A6.71,6.71,0,0,1,53.49,634Zm205.9-35.11L740.39,153.23a6.71,6.71,0,0,1,11.27,4.92v451.7a6.71,6.71,0,0,1-11.27,4.92L499.17,391.25A9.89,9.89,0,0,1,499.17,376.75Z" transform="translate(-16.34 -122.33)"/></svg>