<svg id="Capa_8" data-name="Capa 8" xmlns="http://www.w3.org/2000/svg" viewBox="0 0 742.47 742.47"><defs><style>.cls-1{fill:#1d1d1f;}</style></defs><path class="cls-1" d="M750.42,661.2l-24.87,57.71a58.93,58.93,0,0,1-49.84,35.35C599,759.74,412.53,748.41,216.06,552S8.25,169,13.75,92.3A58.94,58.94,0,0,1,49.09,42.45l57.7-24.88A58.76,58.76,0,0,1,171.6,30l84.14,84.12a58.78,58.78,0,0,1,0,83.09L208,244.88s28.3,85.24,129.08,186S523.12,560,523.12,560l47.7-47.7a58.74,58.74,0,0,1,83.08,0L738,596.4A58.72,58.72,0,0,1,750.42,661.2Z" transform="translate(-12.77 -12.77)"/></svg>